<svg xmlns="http://www.w3.org/2000/svg" xmlns:svg="http://www.w3.org/2000/svg" xmlns:xlink="http://www.w3.org/1999/xlink" version="1.0" height="594.9999965429306pt" width="950.500008225441pt" viewBox="439.5 492 958.500008225441 600.9999965429306" ><defs><style type="text/css">
            @font-face {
                font-family: 'noto_regular';
                src: url('https://app.creately.com/diagram/assets/fonts/noto/noto-regular.woff') format('woff'),
                     url('https://app.creately.com/diagram/assets/fonts/noto/noto-regular.woff2') format('woff2');
                font-weight: normal;
                font-style: normal;
            }
        p {
            margin: 0;
        }
        </style></defs><defs><style>
            span{ display: inline-block; }
        </style></defs><g id="9akw28upxj"><g transform="translate(449 734)"><ellipse cx="20.5" cy="10.125" rx="10.25" ry="10.125" fill="rgba(255,255,255,1)" stroke="#568259" stroke-width="2" stroke-linecap="round" stroke-linejoin="round"/><path d="M 20.5,20.25 L 20.5,48.6 L 41,81 M 20.5,48.6 L 0,81 M 2.0500000000000003,30.375 L 38.95,30.375" fill="none" stroke="#568259" stroke-width="2" stroke-linecap="round" stroke-linejoin="round"/><rect x="0" y="0" width="41" height="81" fill="rgba(255,255,255,0.01)" stroke="rgba(255,255,255,0.01)" stroke-width="2" stroke-linecap="round" stroke-linejoin="round"/></g><g transform="translate(444.5, 820) rotate(0, 25, 0)" width="50" height="19"><text text-decoration="none" x="2" fill="rgb(62, 20, 78)" font-size="10pt" font-family="Arial"  y="17">Sorting&#160;</text><text text-decoration="none" x="48" fill="#4b4b4b" font-size="10pt" font-family="noto_regular"  y="17"></text></g></g><g id="1n2r3y1rf0"><g transform="translate(707.5 575)"><ellipse cx="45.5" cy="30.5" rx="45.5" ry="30.5" fill="rgba(255,255,255,1)" stroke="#464e47" stroke-width="2" stroke-linecap="round" stroke-linejoin="round"/></g><g transform="translate(724.5, 596) rotate(0, 28.5, 9.5)" width="57" height="19"><text text-decoration="none" x="2.5" fill="rgb(11, 87, 148)" font-size="9pt" font-family="Arial"  y="17">is&#160;</text><text text-decoration="none" x="14.5" fill="rgb(11, 87, 148)" font-size="9pt" font-family="Arial"  y="17">Sorted&#160;</text><text text-decoration="none" x="54.5" fill="#4b4b4b" font-size="10pt" font-family="noto_regular"  y="17"></text></g></g><g id="6to9l5hv0f"><g><path d="M 489,764 L 712.5,620" fill="none" stroke="#000000" stroke-width="2" stroke-linecap="round" stroke-linejoin="round"/></g></g><g id="1un8fgr2xp"><g transform="translate(710 650)"><ellipse cx="45.5" cy="30.5" rx="45.5" ry="30.5" fill="rgba(255,255,255,1)" stroke="#464e47" stroke-width="2" stroke-linecap="round" stroke-linejoin="round"/></g><g transform="translate(721.5, 656) rotate(0, 34, 24.5)" width="68" height="49"><text text-decoration="none" x="14" fill="rgb(11, 87, 148)" font-size="9pt" font-family="Arial"  y="13">Swap&#160;</text><text text-decoration="none" x="47" fill="rgb(11, 87, 148)" font-size="9pt" font-family="Arial"  y="13">2&#160;</text><text text-decoration="none" x="2" fill="rgb(11, 87, 148)" font-size="9pt" font-family="Arial"  y="31">var&#160;</text><text text-decoration="none" x="20" fill="rgb(11, 87, 148)" font-size="9pt" font-family="Arial"  y="31">iables&#160;</text><text text-decoration="none" x="56" fill="rgb(11, 87, 148)" font-size="9pt" font-family="Arial"  y="31">in&#160;</text><text text-decoration="none" x="4.5" fill="rgb(11, 87, 148)" font-size="9pt" font-family="Arial"  y="53">Sorting&#160;</text><text text-decoration="none" x="47.5" fill="rgb(11, 87, 148)" font-size="9pt" font-family="Arial"  y="53">list</text><text text-decoration="none" x="63.5" fill="#4b4b4b" font-size="10pt" font-family="noto_regular"  y="53"></text></g></g><g id="t9xdq61tkg"><g><path d="M 489,764 L 715,695" fill="none" stroke="#000000" stroke-width="2" stroke-linecap="round" stroke-linejoin="round"/></g></g><g id="7anojz8i5a"><g transform="translate(665 805)"><ellipse cx="45.5" cy="30.5" rx="45.5" ry="30.5" fill="rgba(255,255,255,1)" stroke="#464e47" stroke-width="2" stroke-linecap="round" stroke-linejoin="round"/></g><g transform="translate(668, 818.5) rotate(0, 42.5, 17)" width="85" height="34"><text text-decoration="none" x="2.5" fill="rgb(11, 87, 148)" font-size="9pt" font-family="Arial"  y="13">Print&#160;</text><text text-decoration="none" x="31.5" fill="rgb(11, 87, 148)" font-size="9pt" font-family="Arial"  y="13">variables&#160;</text><text text-decoration="none" x="7.5" fill="rgb(11, 87, 148)" font-size="9pt" font-family="Arial"  y="35">after&#160;</text><text text-decoration="none" x="37.5" fill="rgb(11, 87, 148)" font-size="9pt" font-family="Arial"  y="35">Sorting</text><text text-decoration="none" x="77.5" fill="#4b4b4b" font-size="10pt" font-family="noto_regular"  y="35"></text></g></g><g id="3uu24ax9fd"><g><path d="M 489,764 L 670,820" fill="none" stroke="#000000" stroke-width="2" stroke-linecap="round" stroke-linejoin="round"/></g></g><g id="3sjdx4tfkr"><g transform="translate(700 940) rotate(-2.2617278288600342e-15)"><ellipse cx="90.00000005960464" cy="49.500002801418304" rx="90.00000005960464" ry="49.500002801418304" fill="rgba(255,255,255,1)" stroke="#464e47" stroke-width="2" stroke-linecap="round" stroke-linejoin="round"/></g><g transform="translate(702.5000000596046, 957.5000028014183) rotate(0, 87.5, 32)" width="175" height="64"><text text-decoration="none" x="6" fill="rgb(11, 87, 148)" font-size="9pt" font-family="Arial"  y="13">Merge&#160;</text><text text-decoration="none" x="46" fill="rgb(11, 87, 148)" font-size="9pt" font-family="Arial"  y="13">values&#160;</text><text text-decoration="none" x="85" fill="rgb(11, 87, 148)" font-size="9pt" font-family="Arial"  y="13">based&#160;</text><text text-decoration="none" x="122" fill="rgb(11, 87, 148)" font-size="9pt" font-family="Arial"  y="13">on&#160;</text><text text-decoration="none" x="139" fill="rgb(11, 87, 148)" font-size="9pt" font-family="Arial"  y="13">index&#160;</text><text text-decoration="none" x="18.5" fill="rgb(11, 87, 148)" font-size="9pt" font-family="Arial"  y="31">value&#160;</text><text text-decoration="none" x="51.5" fill="rgb(11, 87, 148)" font-size="9pt" font-family="Arial"  y="31">from&#160;</text><text text-decoration="none" x="81.5" fill="rgb(11, 87, 148)" font-size="9pt" font-family="Arial"  y="31">first&#160;</text><text text-decoration="none" x="106.5" fill="rgb(11, 87, 148)" font-size="9pt" font-family="Arial"  y="31">,&#160;</text><text text-decoration="none" x="112.5" fill="rgb(11, 87, 148)" font-size="9pt" font-family="Arial"  y="31">last&#160;</text><text text-decoration="none" x="135.5" fill="rgb(11, 87, 148)" font-size="9pt" font-family="Arial"  y="31">and&#160;</text><text text-decoration="none" x="1.5" fill="rgb(11, 87, 148)" font-size="9pt" font-family="Arial"  y="53">middle&#160;</text><text text-decoration="none" x="42.5" fill="rgb(11, 87, 148)" font-size="9pt" font-family="Arial"  y="53">from&#160;</text><text text-decoration="none" x="72.5" fill="rgb(11, 87, 148)" font-size="9pt" font-family="Arial"  y="53">list&#160;</text><text text-decoration="none" x="91.5" fill="rgb(11, 87, 148)" font-size="9pt" font-family="Arial"  y="53">for&#160;</text><text text-decoration="none" x="110.5" fill="rgb(11, 87, 148)" font-size="9pt" font-family="Arial"  y="53">Merge&#160;</text><text text-decoration="none" x="150.5" fill="rgb(11, 87, 148)" font-size="9pt" font-family="Arial"  y="53">Sort</text><text text-decoration="none" x="173.5" fill="#4b4b4b" font-size="10pt" font-family="noto_regular"  y="53"></text></g></g><g id="5fnwg454ld"><g transform="translate(960 760)"><ellipse cx="70.00000125169754" cy="37.500002562999725" rx="70.00000125169754" ry="37.500002562999725" fill="rgba(255,255,255,1)" stroke="#464e47" stroke-width="2" stroke-linecap="round" stroke-linejoin="round"/></g><g transform="translate(963.0000012516975, 773.0000025629997) rotate(0, 67, 24.5)" width="134" height="49"><text text-decoration="none" x="10.5" fill="rgb(11, 87, 148)" font-size="9pt" font-family="Arial"  y="13">Swap&#160;</text><text text-decoration="none" x="43.5" fill="rgb(11, 87, 148)" font-size="9pt" font-family="Arial"  y="13">Adjacent&#160;</text><text text-decoration="none" x="95.5" fill="rgb(11, 87, 148)" font-size="9pt" font-family="Arial"  y="13">Pairs&#160;</text><text text-decoration="none" x="5.5" fill="rgb(11, 87, 148)" font-size="9pt" font-family="Arial"  y="31">which&#160;</text><text text-decoration="none" x="40.5" fill="rgb(11, 87, 148)" font-size="9pt" font-family="Arial"  y="31">are&#160;</text><text text-decoration="none" x="62.5" fill="rgb(11, 87, 148)" font-size="9pt" font-family="Arial"  y="31">out&#160;</text><text text-decoration="none" x="83.5" fill="rgb(11, 87, 148)" font-size="9pt" font-family="Arial"  y="31">of&#160;</text><text text-decoration="none" x="97.5" fill="rgb(11, 87, 148)" font-size="9pt" font-family="Arial"  y="31">order&#160;</text><text text-decoration="none" x="8" fill="rgb(11, 87, 148)" font-size="9pt" font-family="Arial"  y="53">for&#160;</text><text text-decoration="none" x="27" fill="rgb(11, 87, 148)" font-size="9pt" font-family="Arial"  y="53">Short&#160;</text><text text-decoration="none" x="60" fill="rgb(11, 87, 148)" font-size="9pt" font-family="Arial"  y="53">bubble&#160;</text><text text-decoration="none" x="101" fill="rgb(11, 87, 148)" font-size="9pt" font-family="Arial"  y="53">sort&#160;</text><text text-decoration="none" x="126" fill="#4b4b4b" font-size="10pt" font-family="noto_regular"  y="53"></text></g></g><g id="1dpfpwafpn"><g><path d="M 755,710 L 980,865" fill="none" stroke="#000000" stroke-width="1.5" stroke-linecap="round" stroke-linejoin="round" stroke-dasharray="5 5"/><path d="M 977.9480295742115,855.6519569863956 Q 977.1206027936705,863.0164152578619 980,865 M 970.5343816004704,866.4137040450521 Q 977.1206027936705,863.0164152578619 980,865 M 980,865 Z" fill="none" stroke="#000000" stroke-width="1.5" stroke-linecap="round" stroke-linejoin="round"/></g></g><g id="20ttt5pgty"><g transform="translate(925 590)"><ellipse cx="71.27499914169312" cy="32.50000125169754" rx="71.27499914169312" ry="32.50000125169754" fill="rgba(255,255,255,1)" stroke="#464e47" stroke-width="2" stroke-linecap="round" stroke-linejoin="round"/></g><g transform="translate(931.2749991416931, 598.0000012516975) rotate(0, 65, 24.5)" width="130" height="49"><text text-decoration="none" x="6" fill="rgb(11, 87, 148)" font-size="9pt" font-family="Arial"  y="13">swap&#160;</text><text text-decoration="none" x="38" fill="rgb(11, 87, 148)" font-size="9pt" font-family="Arial"  y="13">minimum&#160;</text><text text-decoration="none" x="94" fill="rgb(11, 87, 148)" font-size="9pt" font-family="Arial"  y="13">index&#160;&#160;</text><text text-decoration="none" x="6.5" fill="rgb(11, 87, 148)" font-size="9pt" font-family="Arial"  y="31">variable&#160;</text><text text-decoration="none" x="54.5" fill="rgb(11, 87, 148)" font-size="9pt" font-family="Arial"  y="31">for&#160;</text><text text-decoration="none" x="73.5" fill="rgb(11, 87, 148)" font-size="9pt" font-family="Arial"  y="31">selection&#160;</text><text text-decoration="none" x="53.5" fill="rgb(11, 87, 148)" font-size="9pt" font-family="Arial"  y="53">Sort</text><text text-decoration="none" x="76.5" fill="#4b4b4b" font-size="10pt" font-family="noto_regular"  y="53"></text></g></g><g id="4gs9g1bu6q"><g><path d="M 795,695 L 960,705" fill="none" stroke="#000000" stroke-width="1.5" stroke-linecap="round" stroke-linejoin="round" stroke-dasharray="5 5"/><path d="M 953.4150809470757,698.0548339199884 Q 956.5099003614295,704.7884788097836 960,705 M 952.6245204986419,711.099081319146 Q 956.5099003614295,704.7884788097836 960,705 M 960,705 Z" fill="none" stroke="#000000" stroke-width="1.5" stroke-linecap="round" stroke-linejoin="round"/></g></g><g id="s6ovcc8t4s"><g><path d="M 800,680 L 925,625" fill="none" stroke="#000000" stroke-width="1.5" stroke-linecap="round" stroke-linejoin="round" stroke-dasharray="5 5"/><path d="M 915.9676648592477,621.8356023136083 Q 921.7995977887316,626.4081769729581 925,625 M 921.2307262956787,633.7971055782241 Q 921.7995977887316,626.4081769729581 925,625 M 925,625 Z" fill="none" stroke="#000000" stroke-width="1.5" stroke-linecap="round" stroke-linejoin="round"/></g></g><g id="5dnyldh1tk"><g transform="translate(685 495)"><ellipse cx="45.5" cy="30.5" rx="45.5" ry="30.5" fill="rgba(255,255,255,1)" stroke="#464e47" stroke-width="2" stroke-linecap="round" stroke-linejoin="round"/></g><g transform="translate(687.5, 508.5) rotate(0, 43, 17)" width="86" height="34"><text text-decoration="none" x="3.5" fill="rgb(11, 87, 148)" font-size="9pt" font-family="Arial"  y="13">initial&#160;</text><text text-decoration="none" x="36.5" fill="rgb(11, 87, 148)" font-size="9pt" font-family="Arial"  y="13">Random&#160;</text><text text-decoration="none" x="24.5" fill="rgb(11, 87, 148)" font-size="9pt" font-family="Arial"  y="35">Values</text><text text-decoration="none" x="61.5" fill="#4b4b4b" font-size="10pt" font-family="noto_regular"  y="35"></text></g></g><g id="120994ubjc"><g transform="translate(900 515)"><ellipse cx="45.5" cy="30.5" rx="45.5" ry="30.5" fill="rgba(255,255,255,1)" stroke="#464e47" stroke-width="2" stroke-linecap="round" stroke-linejoin="round"/></g><g transform="translate(919, 528.5) rotate(0, 26.5, 17)" width="53" height="34"><text text-decoration="none" x="8" fill="rgb(11, 87, 148)" font-size="9pt" font-family="Arial"  y="13">Return&#160;</text><text text-decoration="none" x="0.5" fill="rgb(11, 87, 148)" font-size="9pt" font-family="Arial"  y="35">Variables</text><text text-decoration="none" x="52.5" fill="#4b4b4b" font-size="10pt" font-family="noto_regular"  y="35"></text></g></g><g id="5mmij9issx"><g><path d="M 490,765 L 690,540" fill="none" stroke="#000000" stroke-width="2" stroke-linecap="round" stroke-linejoin="round"/></g></g><g id="15x2hqcfx5"><mask id="0a1d5" x="784.5" y="532" width="128.5" height="86" maskUnits="userSpaceOnUse"><rect x="784.5" y="532" width="128.5" height="86" fill="white" /><rect x="794.562169094834" y="565.829461993268" width="97" height="25" fill="black" /></mask><g mask="url(#0a1d5)"><path d="M 797.5,605 L 900,545" fill="none" stroke="#000000" stroke-width="1.5" stroke-linecap="round" stroke-linejoin="round" stroke-dasharray="5 5"/><path d="M 788.1640469523572,602.8937066907196 Q 794.4824668903954,606.7663608446467 797.5,605 M 794.7658206092241,614.171736687867 Q 794.4824668903954,606.7663608446467 797.5,605 M 797.5,605 Z" fill="none" stroke="#000000" stroke-width="1.5" stroke-linecap="round" stroke-linejoin="round"/></g><g transform="translate(797.562169094834, 568.829461993268)" width="91" height="19"><text text-decoration="none" x="10" fill="rgb(75, 75, 75)" font-size="10pt" font-family="Lato"  y="17">&#x3C;&#x3C;include&#x3E;&#x3E;</text><text text-decoration="none" x="81" fill="#4b4b4b" font-size="10pt" font-family="noto_regular"  y="17"></text></g></g><g id="r50p2m3z3q"><g transform="translate(1150 500)"><ellipse cx="45.5" cy="30.5" rx="45.5" ry="30.5" fill="rgba(255,255,255,1)" stroke="#464e47" stroke-width="2" stroke-linecap="round" stroke-linejoin="round"/></g><g transform="translate(1166.5, 506) rotate(0, 29, 24.5)" width="58" height="49"><text text-decoration="none" x="2.5" fill="rgb(11, 87, 148)" font-size="9pt" font-family="Arial"  y="13">minimum&#160;</text><text text-decoration="none" x="7" fill="rgb(11, 87, 148)" font-size="9pt" font-family="Arial"  y="31">Index&#160;</text><text text-decoration="none" x="40" fill="rgb(11, 87, 148)" font-size="9pt" font-family="Arial"  y="31">of&#160;</text><text text-decoration="none" x="3.5" fill="rgb(11, 87, 148)" font-size="9pt" font-family="Arial"  y="53">variables</text><text text-decoration="none" x="54.5" fill="#4b4b4b" font-size="10pt" font-family="noto_regular"  y="53"></text></g></g><g id="1g3zfj6dt7"><g transform="translate(960 670)"><ellipse cx="72.50000381469727" cy="35.00000190734863" rx="72.50000381469727" ry="35.00000190734863" fill="rgba(255,255,255,1)" stroke="#464e47" stroke-width="2" stroke-linecap="round" stroke-linejoin="round"/></g><g transform="translate(965.5000038146973, 680.5000019073486) rotate(0, 67, 24.5)" width="134" height="49"><text text-decoration="none" x="10.5" fill="rgb(11, 87, 148)" font-size="9pt" font-family="Arial"  y="13">Swap&#160;</text><text text-decoration="none" x="43.5" fill="rgb(11, 87, 148)" font-size="9pt" font-family="Arial"  y="13">Adjacent&#160;</text><text text-decoration="none" x="95.5" fill="rgb(11, 87, 148)" font-size="9pt" font-family="Arial"  y="13">Pairs&#160;</text><text text-decoration="none" x="5.5" fill="rgb(11, 87, 148)" font-size="9pt" font-family="Arial"  y="31">which&#160;</text><text text-decoration="none" x="40.5" fill="rgb(11, 87, 148)" font-size="9pt" font-family="Arial"  y="31">are&#160;</text><text text-decoration="none" x="62.5" fill="rgb(11, 87, 148)" font-size="9pt" font-family="Arial"  y="31">out&#160;</text><text text-decoration="none" x="83.5" fill="rgb(11, 87, 148)" font-size="9pt" font-family="Arial"  y="31">of&#160;</text><text text-decoration="none" x="97.5" fill="rgb(11, 87, 148)" font-size="9pt" font-family="Arial"  y="31">order&#160;</text><text text-decoration="none" x="26" fill="rgb(11, 87, 148)" font-size="9pt" font-family="Arial"  y="53">for&#160;</text><text text-decoration="none" x="45" fill="rgb(11, 87, 148)" font-size="9pt" font-family="Arial"  y="53">bubble&#160;</text><text text-decoration="none" x="86" fill="rgb(11, 87, 148)" font-size="9pt" font-family="Arial"  y="53">sort</text><text text-decoration="none" x="108" fill="#4b4b4b" font-size="10pt" font-family="noto_regular"  y="53"></text></g></g><g id="14pepa7o43"><mask id="23187" x="767" y="692" width="241" height="86" maskUnits="userSpaceOnUse"><rect x="767" y="692" width="241" height="86" fill="white" /><rect x="842.5" y="722.5" width="90" height="25" fill="black" /><rect x="842.5" y="722.5" width="90" height="25" fill="black" /></mask><g mask="url(#23187)"><path d="M 780,705 L 995,765" fill="none" stroke="#000000" stroke-width="1.5" stroke-linecap="round" stroke-linejoin="round" stroke-dasharray="5 5"/><path d="M 990.0207184211039,756.8266747421521 Q 991.6321807645688,764.060143469182 995,765 M 986.5080046371717,769.4138991345759 Q 991.6321807645688,764.060143469182 995,765 M 995,765 Z" fill="none" stroke="#000000" stroke-width="1.5" stroke-linecap="round" stroke-linejoin="round"/></g><g transform="translate(845.5, 725.5)" width="84" height="19"><text text-decoration="none" x="8" fill="rgb(0, 0, 0)" font-size="9pt" font-family="Arial"  y="17">&#x3C;&#x3C;include&#x3E;&#x3E;</text><text text-decoration="none" x="76" fill="#4b4b4b" font-size="10pt" font-family="noto_regular"  y="17"></text></g><g transform="translate(845.5, 725.5)" width="84" height="19"><text text-decoration="none" x="8" fill="rgb(0, 0, 0)" font-size="9pt" font-family="Arial"  y="17">&#x3C;&#x3C;include&#x3E;&#x3E;</text><text text-decoration="none" x="76" fill="#4b4b4b" font-size="10pt" font-family="noto_regular"  y="17"></text></g></g><g id="9osmcf5fb9"><g transform="translate(1160 575)"><ellipse cx="57.50000470876694" cy="32.50000125169754" rx="57.50000470876694" ry="32.50000125169754" fill="rgba(255,255,255,1)" stroke="#464e47" stroke-width="2" stroke-linecap="round" stroke-linejoin="round"/></g><g transform="translate(1169.000004708767, 583.0000012516975) rotate(0, 48.5, 24.5)" width="97" height="49"><text text-decoration="none" x="4" fill="rgb(11, 87, 148)" font-size="9pt" font-family="Arial"  y="13">Sorts&#160;</text><text text-decoration="none" x="36" fill="rgb(11, 87, 148)" font-size="9pt" font-family="Arial"  y="13">the&#160;</text><text text-decoration="none" x="57" fill="rgb(11, 87, 148)" font-size="9pt" font-family="Arial"  y="13">values&#160;</text><text text-decoration="none" x="8.5" fill="rgb(11, 87, 148)" font-size="9pt" font-family="Arial"  y="31">based&#160;</text><text text-decoration="none" x="45.5" fill="rgb(11, 87, 148)" font-size="9pt" font-family="Arial"  y="31">on&#160;</text><text text-decoration="none" x="62.5" fill="rgb(11, 87, 148)" font-size="9pt" font-family="Arial"  y="31">their&#160;</text><text text-decoration="none" x="26.5" fill="rgb(11, 87, 148)" font-size="9pt" font-family="Arial"  y="53">position</text><text text-decoration="none" x="70.5" fill="#4b4b4b" font-size="10pt" font-family="noto_regular"  y="53"></text></g></g><g id="1z6v1ys0g0"><g><path d="M 1095,690 L 1190,635" fill="none" stroke="#000000" stroke-width="1.5" stroke-linecap="round" stroke-linejoin="round" stroke-dasharray="5 5"/><path d="M 1180.674251393227,632.8489761191978 Q 1186.9740339668492,636.7518750718241 1190,635 M 1187.2218844741699,644.1585241680988 Q 1186.9740339668492,636.7518750718241 1190,635 M 1190,635 Z" fill="none" stroke="#000000" stroke-width="1.5" stroke-linecap="round" stroke-linejoin="round"/></g></g><g id="1gr40hhxw0"><mask id="a3d50" x="1047" y="517" width="116" height="101" maskUnits="userSpaceOnUse"><rect x="1047" y="517" width="116" height="101" fill="white" /><rect x="1051.9822250899222" y="559.1814790917316" width="96" height="25" fill="black" /></mask><g mask="url(#a3d50)"><path d="M 1060,605 L 1150,530" fill="none" stroke="#000000" stroke-width="1.5" stroke-linecap="round" stroke-linejoin="round" stroke-dasharray="5 5"/><path d="M 1050.4448001536093,604.4571863044803 Q 1057.3139116097993,607.2384069918338 1060,605 M 1058.8108462855882,614.4964416628551 Q 1057.3139116097993,607.2384069918338 1060,605 M 1060,605 Z" fill="none" stroke="#000000" stroke-width="1.5" stroke-linecap="round" stroke-linejoin="round"/></g><g transform="translate(1054.9822250899222, 562.1814790917316)" width="90" height="19"><text text-decoration="none" x="9" fill="rgb(75, 75, 75)" font-size="10pt" font-family="Lato"  y="17">&#x3C;&#x3C;returns&#x3E;&#x3E;</text><text text-decoration="none" x="81" fill="#4b4b4b" font-size="10pt" font-family="noto_regular"  y="17"></text></g></g><g id="16yklfajcw"><g transform="translate(1195 690)"><ellipse cx="57.50000470876694" cy="32.50000125169754" rx="57.50000470876694" ry="32.50000125169754" fill="rgba(255,255,255,1)" stroke="#464e47" stroke-width="2" stroke-linecap="round" stroke-linejoin="round"/></g><g transform="translate(1204.000004708767, 698.0000012516975) rotate(0, 48.5, 24.5)" width="97" height="49"><text text-decoration="none" x="4" fill="rgb(11, 87, 148)" font-size="9pt" font-family="Arial"  y="13">Sorts&#160;</text><text text-decoration="none" x="36" fill="rgb(11, 87, 148)" font-size="9pt" font-family="Arial"  y="13">the&#160;</text><text text-decoration="none" x="57" fill="rgb(11, 87, 148)" font-size="9pt" font-family="Arial"  y="13">values&#160;</text><text text-decoration="none" x="8.5" fill="rgb(11, 87, 148)" font-size="9pt" font-family="Arial"  y="31">based&#160;</text><text text-decoration="none" x="45.5" fill="rgb(11, 87, 148)" font-size="9pt" font-family="Arial"  y="31">on&#160;</text><text text-decoration="none" x="62.5" fill="rgb(11, 87, 148)" font-size="9pt" font-family="Arial"  y="31">their&#160;</text><text text-decoration="none" x="26.5" fill="rgb(11, 87, 148)" font-size="9pt" font-family="Arial"  y="53">position</text><text text-decoration="none" x="70.5" fill="#4b4b4b" font-size="10pt" font-family="noto_regular"  y="53"></text></g></g><g id="1ng5648drl"><mask id="74bd7" x="1082" y="712" width="126" height="84" maskUnits="userSpaceOnUse"><rect x="1082" y="712" width="126" height="84" fill="white" /><rect x="1073.5109460666008" y="754.8336512813715" width="97" height="25" fill="black" /></mask><g mask="url(#74bd7)"><path d="M 1095,783 L 1195,725" fill="none" stroke="#000000" stroke-width="1.5" stroke-linecap="round" stroke-linejoin="round" stroke-dasharray="5 5"/><path d="M 1185.6725592350183,722.856325680457 Q 1191.9754154221616,726.7542590551463 1195,725 M 1192.2291024536278,734.1607105401283 Q 1191.9754154221616,726.7542590551463 1195,725 M 1195,725 Z" fill="none" stroke="#000000" stroke-width="1.5" stroke-linecap="round" stroke-linejoin="round"/></g><g transform="translate(1076.5109460666008, 757.8336512813715)" width="91" height="19"><text text-decoration="none" x="10" fill="rgb(75, 75, 75)" font-size="10pt" font-family="Lato"  y="17">&#x3C;&#x3C;include&#x3E;&#x3E;</text><text text-decoration="none" x="81" fill="#4b4b4b" font-size="10pt" font-family="noto_regular"  y="17"></text></g></g><g id="66cjjfom5k"><g transform="translate(1235 765)"><ellipse cx="50.000002443790436" cy="30.5" rx="50.000002443790436" ry="30.5" fill="rgba(255,255,255,1)" stroke="#464e47" stroke-width="2" stroke-linecap="round" stroke-linejoin="round"/></g><g transform="translate(1247.0000024437904, 771) rotate(0, 38, 24.5)" width="76" height="49"><text text-decoration="none" x="2.5" fill="rgb(11, 87, 148)" font-size="9pt" font-family="Arial"  y="13">returns&#160;</text><text text-decoration="none" x="46.5" fill="rgb(11, 87, 148)" font-size="9pt" font-family="Arial"  y="13">after&#160;</text><text text-decoration="none" x="8" fill="rgb(11, 87, 148)" font-size="9pt" font-family="Arial"  y="31">sorting&#160;</text><text text-decoration="none" x="50" fill="rgb(11, 87, 148)" font-size="9pt" font-family="Arial"  y="31">the&#160;</text><text text-decoration="none" x="20" fill="rgb(11, 87, 148)" font-size="9pt" font-family="Arial"  y="53">values</text><text text-decoration="none" x="56" fill="#4b4b4b" font-size="10pt" font-family="noto_regular"  y="53"></text></g></g><g id="12h8r864em"><mask id="e0ab9" x="1083.95" y="782" width="164.04999999999995" height="27.799999999999955" maskUnits="userSpaceOnUse"><rect x="1083.95" y="782" width="164.04999999999995" height="27.799999999999955" fill="white" /><rect x="1104.4978239150985" y="783.5757255845913" width="96" height="25" fill="black" /></mask><g mask="url(#e0ab9)"><path d="M 1096.95,796.8 L 1235,795" fill="none" stroke="#000000" stroke-width="1.5" stroke-linecap="round" stroke-linejoin="round" stroke-dasharray="5 5"/><path d="M 1104.027601794657,803.2423632037303 Q 1100.4462063156757,796.7544138256558 1096.95,796.8 M 1103.8572234680455,790.1752920988928 Q 1100.4462063156757,796.7544138256558 1096.95,796.8 M 1096.95,796.8 Z" fill="none" stroke="#000000" stroke-width="1.5" stroke-linecap="round" stroke-linejoin="round"/></g><g transform="translate(1107.4978239150985, 786.5757255845913)" width="90" height="19"><text text-decoration="none" x="9" fill="rgb(75, 75, 75)" font-size="10pt" font-family="Lato"  y="17">&#x3C;&#x3C;returns&#x3E;&#x3E;</text><text text-decoration="none" x="81" fill="#4b4b4b" font-size="10pt" font-family="noto_regular"  y="17"></text></g></g><g id="1owapytb75"><g transform="translate(970 845)"><ellipse cx="70.00000125169754" cy="37.500002562999725" rx="70.00000125169754" ry="37.500002562999725" fill="rgba(255,255,255,1)" stroke="#464e47" stroke-width="2" stroke-linecap="round" stroke-linejoin="round"/></g><g transform="translate(973.0000012516975, 858.0000025629997) rotate(0, 67, 24.5)" width="134" height="49"><text text-decoration="none" x="10.5" fill="rgb(11, 87, 148)" font-size="9pt" font-family="Arial"  y="13">Swap&#160;</text><text text-decoration="none" x="43.5" fill="rgb(11, 87, 148)" font-size="9pt" font-family="Arial"  y="13">Adjacent&#160;</text><text text-decoration="none" x="95.5" fill="rgb(11, 87, 148)" font-size="9pt" font-family="Arial"  y="13">Pairs&#160;</text><text text-decoration="none" x="5.5" fill="rgb(11, 87, 148)" font-size="9pt" font-family="Arial"  y="31">which&#160;</text><text text-decoration="none" x="40.5" fill="rgb(11, 87, 148)" font-size="9pt" font-family="Arial"  y="31">are&#160;</text><text text-decoration="none" x="62.5" fill="rgb(11, 87, 148)" font-size="9pt" font-family="Arial"  y="31">out&#160;</text><text text-decoration="none" x="83.5" fill="rgb(11, 87, 148)" font-size="9pt" font-family="Arial"  y="31">of&#160;</text><text text-decoration="none" x="97.5" fill="rgb(11, 87, 148)" font-size="9pt" font-family="Arial"  y="31">order&#160;</text><text text-decoration="none" x="20" fill="rgb(11, 87, 148)" font-size="9pt" font-family="Arial"  y="53">for&#160;</text><text text-decoration="none" x="39" fill="rgb(11, 87, 148)" font-size="9pt" font-family="Arial"  y="53">Insertion&#160;</text><text text-decoration="none" x="91" fill="rgb(11, 87, 148)" font-size="9pt" font-family="Arial"  y="53">Sort</text><text text-decoration="none" x="114" fill="#4b4b4b" font-size="10pt" font-family="noto_regular"  y="53"></text></g></g><g id="1i3smeaj7z"><g transform="translate(955 935) rotate(2.0355549478327313e-15)"><ellipse cx="100.00000488758087" cy="34.99999463558197" rx="100.00000488758087" ry="34.99999463558197" fill="rgba(255,255,255,1)" stroke="#464e47" stroke-width="2" stroke-linecap="round" stroke-linejoin="round"/></g><g transform="translate(957.5000048875809, 945.499994635582) rotate(0, 97.5, 24.5)" width="195" height="49"><text text-decoration="none" x="10.5" fill="rgb(11, 87, 148)" font-size="9pt" font-family="Arial"  y="13">Split&#160;</text><text text-decoration="none" x="37.5" fill="rgb(11, 87, 148)" font-size="9pt" font-family="Arial"  y="13">the&#160;</text><text text-decoration="none" x="58.5" fill="rgb(11, 87, 148)" font-size="9pt" font-family="Arial"  y="13">values&#160;</text><text text-decoration="none" x="97.5" fill="rgb(11, 87, 148)" font-size="9pt" font-family="Arial"  y="13">by&#160;</text><text text-decoration="none" x="113.5" fill="rgb(11, 87, 148)" font-size="9pt" font-family="Arial"  y="13">left&#160;</text><text text-decoration="none" x="134.5" fill="rgb(11, 87, 148)" font-size="9pt" font-family="Arial"  y="13">and&#160;</text><text text-decoration="none" x="158.5" fill="rgb(11, 87, 148)" font-size="9pt" font-family="Arial"  y="13">right&#160;</text><text text-decoration="none" x="0.5" fill="rgb(11, 87, 148)" font-size="9pt" font-family="Arial"  y="31">side&#160;</text><text text-decoration="none" x="26.5" fill="rgb(11, 87, 148)" font-size="9pt" font-family="Arial"  y="31">of&#160;</text><text text-decoration="none" x="40.5" fill="rgb(11, 87, 148)" font-size="9pt" font-family="Arial"  y="31">list&#160;</text><text text-decoration="none" x="59.5" fill="rgb(11, 87, 148)" font-size="9pt" font-family="Arial"  y="31">and&#160;&#160;</text><text text-decoration="none" x="86.5" fill="rgb(11, 87, 148)" font-size="9pt" font-family="Arial"  y="31">swap&#160;</text><text text-decoration="none" x="118.5" fill="rgb(11, 87, 148)" font-size="9pt" font-family="Arial"  y="31">the&#160;</text><text text-decoration="none" x="139.5" fill="rgb(11, 87, 148)" font-size="9pt" font-family="Arial"  y="31">values&#160;</text><text text-decoration="none" x="178.5" fill="rgb(11, 87, 148)" font-size="9pt" font-family="Arial"  y="31">for&#160;</text><text text-decoration="none" x="69" fill="rgb(11, 87, 148)" font-size="9pt" font-family="Arial"  y="53">Quick&#160;</text><text text-decoration="none" x="103" fill="rgb(11, 87, 148)" font-size="9pt" font-family="Arial"  y="53">Sort</text><text text-decoration="none" x="126" fill="#4b4b4b" font-size="10pt" font-family="noto_regular"  y="53"></text></g></g><g id="kfwqg5ysbh"><g><path d="M 756,709 L 756,709" fill="none" stroke="#a0a0a0" stroke-width="1.5" stroke-linecap="round" stroke-linejoin="round"/></g></g><g id="cvkfa7nw4l"><mask id="227ff" x="737" y="697" width="261" height="261" maskUnits="userSpaceOnUse"><rect x="737" y="697" width="261" height="261" fill="white" /><rect x="811.5910761412443" y="807.5910761412443" width="97" height="25" fill="black" /></mask><g mask="url(#227ff)"><path d="M 750,710 L 985,945" fill="none" stroke="#000000" stroke-width="1.5" stroke-linecap="round" stroke-linejoin="round" stroke-dasharray="5 5"/><path d="M 984.6754973250673,935.4348973436522 Q 982.5275986671799,942.5275986671799 985,945 M 975.4348973436522,944.6754973250673 Q 982.5275986671799,942.5275986671799 985,945 M 985,945 Z" fill="none" stroke="#000000" stroke-width="1.5" stroke-linecap="round" stroke-linejoin="round"/></g><g transform="translate(814.5910761412443, 810.5910761412443)" width="91" height="19"><text text-decoration="none" x="10" fill="rgb(75, 75, 75)" font-size="10pt" font-family="Lato"  y="17">&#x3C;&#x3C;include&#x3E;&#x3E;</text><text text-decoration="none" x="81" fill="#4b4b4b" font-size="10pt" font-family="noto_regular"  y="17"></text></g></g><g id="9nhvaadp55"><g transform="translate(1265 890)"><ellipse cx="50.000002443790436" cy="30.5" rx="50.000002443790436" ry="30.5" fill="rgba(255,255,255,1)" stroke="#464e47" stroke-width="2" stroke-linecap="round" stroke-linejoin="round"/></g><g transform="translate(1280.5000024437904, 903.5) rotate(0, 34.5, 17)" width="69" height="34"><text text-decoration="none" x="2.5" fill="rgb(11, 87, 148)" font-size="9pt" font-family="Arial"  y="13">returns&#160;</text><text text-decoration="none" x="46.5" fill="rgb(11, 87, 148)" font-size="9pt" font-family="Arial"  y="13">last&#160;</text><text text-decoration="none" x="19.5" fill="rgb(11, 87, 148)" font-size="9pt" font-family="Arial"  y="35">value</text><text text-decoration="none" x="49.5" fill="#4b4b4b" font-size="10pt" font-family="noto_regular"  y="35"></text></g></g><g id="7ktup9qmu3"><mask id="28bf8" x="1144" y="907" width="134" height="75" maskUnits="userSpaceOnUse"><rect x="1144" y="907" width="134" height="75" fill="white" /><rect x="1142.5919460923544" y="941.2592096432836" width="96" height="25" fill="black" /></mask><g mask="url(#28bf8)"><path d="M 1157,969 L 1265,920" fill="none" stroke="#000000" stroke-width="1.5" stroke-linecap="round" stroke-linejoin="round" stroke-dasharray="5 5"/><path d="M 1166.0678913165698,972.0610190922936 Q 1160.184108470674,967.555358193861 1157,969 M 1160.6685425661253,960.1604136831503 Q 1160.184108470674,967.555358193861 1157,969 M 1157,969 Z" fill="none" stroke="#000000" stroke-width="1.5" stroke-linecap="round" stroke-linejoin="round"/></g><g transform="translate(1145.5919460923544, 944.2592096432836)" width="90" height="19"><text text-decoration="none" x="9" fill="rgb(75, 75, 75)" font-size="10pt" font-family="Lato"  y="17">&#x3C;&#x3C;returns&#x3E;&#x3E;</text><text text-decoration="none" x="81" fill="#4b4b4b" font-size="10pt" font-family="noto_regular"  y="17"></text></g></g><g id="adkr90mpgy"><g transform="translate(980 1020)"><ellipse cx="75.00001722574234" cy="34.9999982714653" rx="75.00001722574234" ry="34.9999982714653" fill="rgba(255,255,255,1)" stroke="#464e47" stroke-width="2" stroke-linecap="round" stroke-linejoin="round"/></g><g transform="translate(982.5000172257423, 1030.4999982714653) rotate(0, 72.5, 24.5)" width="145" height="49"><text text-decoration="none" x="1" fill="rgb(11, 87, 148)" font-size="9pt" font-family="Arial"  y="13">Creates&#160;</text><text text-decoration="none" x="48" fill="rgb(11, 87, 148)" font-size="9pt" font-family="Arial"  y="13">a&#160;</text><text text-decoration="none" x="58" fill="rgb(11, 87, 148)" font-size="9pt" font-family="Arial"  y="13">hole&#160;</text><text text-decoration="none" x="85" fill="rgb(11, 87, 148)" font-size="9pt" font-family="Arial"  y="13">and&#160;</text><text text-decoration="none" x="109" fill="rgb(11, 87, 148)" font-size="9pt" font-family="Arial"  y="13">swaps&#160;</text><text text-decoration="none" x="17" fill="rgb(11, 87, 148)" font-size="9pt" font-family="Arial"  y="31">the&#160;</text><text text-decoration="none" x="38" fill="rgb(11, 87, 148)" font-size="9pt" font-family="Arial"  y="31">values&#160;</text><text text-decoration="none" x="77" fill="rgb(11, 87, 148)" font-size="9pt" font-family="Arial"  y="31">based&#160;</text><text text-decoration="none" x="114" fill="rgb(11, 87, 148)" font-size="9pt" font-family="Arial"  y="31">on&#160;</text><text text-decoration="none" x="14" fill="rgb(11, 87, 148)" font-size="9pt" font-family="Arial"  y="53">values&#160;</text><text text-decoration="none" x="53" fill="rgb(11, 87, 148)" font-size="9pt" font-family="Arial"  y="53">for&#160;</text><text text-decoration="none" x="72" fill="rgb(11, 87, 148)" font-size="9pt" font-family="Arial"  y="53">Heap&#160;</text><text text-decoration="none" x="105" fill="rgb(11, 87, 148)" font-size="9pt" font-family="Arial"  y="53">Sort&#160;</text><text text-decoration="none" x="131" fill="#4b4b4b" font-size="10pt" font-family="noto_regular"  y="53"></text></g></g><g id="21p8l34kie"><g transform="translate(1260 990)"><ellipse cx="67.50000411272049" cy="30.5" rx="67.50000411272049" ry="30.5" fill="rgba(255,255,255,1)" stroke="#464e47" stroke-width="2" stroke-linecap="round" stroke-linejoin="round"/></g><g transform="translate(1272.5000041127205, 996) rotate(0, 55, 24.5)" width="110" height="49"><text text-decoration="none" x="9.5" fill="rgb(11, 87, 148)" font-size="9pt" font-family="Arial"  y="13">returns&#160;</text><text text-decoration="none" x="53.5" fill="rgb(11, 87, 148)" font-size="9pt" font-family="Arial"  y="13">smallest&#160;&#160;</text><text text-decoration="none" x="4" fill="rgb(11, 87, 148)" font-size="9pt" font-family="Arial"  y="31">value&#160;</text><text text-decoration="none" x="37" fill="rgb(11, 87, 148)" font-size="9pt" font-family="Arial"  y="31">either&#160;</text><text text-decoration="none" x="73" fill="rgb(11, 87, 148)" font-size="9pt" font-family="Arial"  y="31">left&#160;</text><text text-decoration="none" x="94" fill="rgb(11, 87, 148)" font-size="9pt" font-family="Arial"  y="31">or&#160;</text><text text-decoration="none" x="4.5" fill="rgb(11, 87, 148)" font-size="9pt" font-family="Arial"  y="53">right&#160;</text><text text-decoration="none" x="33.5" fill="rgb(11, 87, 148)" font-size="9pt" font-family="Arial"  y="53">or&#160;</text><text text-decoration="none" x="48.5" fill="rgb(11, 87, 148)" font-size="9pt" font-family="Arial"  y="53">hole&#160;</text><text text-decoration="none" x="75.5" fill="rgb(11, 87, 148)" font-size="9pt" font-family="Arial"  y="53">value</text><text text-decoration="none" x="105.5" fill="#4b4b4b" font-size="10pt" font-family="noto_regular"  y="53"></text></g></g><g id="cy59y423wo"><mask id="a1623" x="727" y="697" width="271" height="366" maskUnits="userSpaceOnUse"><rect x="727" y="697" width="271" height="366" fill="white" /><rect x="804.8809405946321" y="854.8449787843874" width="97" height="25" fill="black" /></mask><g mask="url(#a1623)"><path d="M 740,710 L 985,1050" fill="none" stroke="#000000" stroke-width="1.5" stroke-linecap="round" stroke-linejoin="round" stroke-dasharray="5 5"/><path d="M 986.2129154441158,1040.5065640078033 Q 982.955877669418,1047.1632588065393 985,1050 M 975.6105952335562,1048.1464712183536 Q 982.955877669418,1047.1632588065393 985,1050 M 985,1050 Z" fill="none" stroke="#000000" stroke-width="1.5" stroke-linecap="round" stroke-linejoin="round"/></g><g transform="translate(807.8809405946321, 857.8449787843874)" width="91" height="19"><text text-decoration="none" x="10" fill="rgb(75, 75, 75)" font-size="10pt" font-family="Lato"  y="17">&#x3C;&#x3C;include&#x3E;&#x3E;</text><text text-decoration="none" x="81" fill="#4b4b4b" font-size="10pt" font-family="noto_regular"  y="17"></text></g></g><g id="239y58frwd"><mask id="0fc05" x="1115.95" y="1002" width="157.04999999999995" height="63.25" maskUnits="userSpaceOnUse"><rect x="1115.95" y="1002" width="157.04999999999995" height="63.25" fill="white" /><rect x="1123.5794405933268" y="1027.6328946043386" width="96" height="25" fill="black" /></mask><g mask="url(#0fc05)"><path d="M 1128.95,1052.25 L 1260,1015" fill="none" stroke="#000000" stroke-width="1.5" stroke-linecap="round" stroke-linejoin="round" stroke-dasharray="5 5"/><path d="M 1137.4630521427832,1056.6231492115826 Q 1132.31327614555,1051.2940134572932 1128.95,1052.25 M 1133.8900524394164,1044.05290461759 Q 1132.31327614555,1051.2940134572932 1128.95,1052.25 M 1128.95,1052.25 Z" fill="none" stroke="#000000" stroke-width="1.5" stroke-linecap="round" stroke-linejoin="round"/></g><g transform="translate(1126.5794405933268, 1030.6328946043386)" width="90" height="19"><text text-decoration="none" x="9" fill="rgb(75, 75, 75)" font-size="10pt" font-family="Lato"  y="17">&#x3C;&#x3C;returns&#x3E;&#x3E;</text><text text-decoration="none" x="81" fill="#4b4b4b" font-size="10pt" font-family="noto_regular"  y="17"></text></g></g><g id="sfxy5w91mm"><g><path d="M 489,764 L 700,990" fill="none" stroke="#000000" stroke-width="2" stroke-linecap="round" stroke-linejoin="round"/></g></g></svg>